<svg width="339" height="349" viewBox="0 0 339 349" fill="none" xmlns="http://www.w3.org/2000/svg">
<path d="M10.9496 274.607C12.0537 274.524 13.3573 273.943 14.5928 273.325M14.5928 273.325C15.5765 272.833 16.5171 272.317 17.2795 272.011C26.9239 268.142 36.3231 264.934 46.7214 263.688C70.1763 260.879 93.8835 262.015 117.423 262.875C141.056 263.739 164.659 265.035 188.124 268.137C200.532 269.778 212.917 271.619 225.322 273.266C236.997 274.817 248.281 277.796 259.867 279.786C278.829 283.043 298.688 286.489 316.877 292.93C319.486 293.854 327.935 296.523 328.154 300.038C328.319 302.682 328.013 304.03 325.075 305.035C322.008 306.083 318.779 306.232 315.652 306.947C312.95 307.565 312.395 308.091 312.292 310.916C312.11 315.887 312.172 320.799 312.166 325.766C312.162 329.258 312.996 335.708 310.061 338.362C307.981 340.243 302.042 336.618 300.253 335.526L300.248 335.523C295.971 332.913 292.387 328.482 289.207 324.63C286.117 320.886 283.445 316.694 278.971 314.559C274.879 312.607 269.81 312.902 265.373 313.169C251.432 314.007 237.431 314.132 223.479 313.622C206.707 313.009 190.061 312.595 173.501 309.563C155.222 306.217 136.659 304.964 118.287 302.362C106.854 300.743 95.3832 299.318 84.0708 296.921C73.9058 294.767 63.5739 292.155 53.2944 290.712C48.9041 290.096 44.512 289.932 40.148 289.066C35.7798 288.199 31.6051 286.806 27.3402 285.548C22.9822 284.262 19.2482 283.413 15.8005 280.24C14.2375 278.802 13.0407 275.927 14.1891 273.957C14.3167 273.738 14.4514 273.527 14.5928 273.325ZM14.5928 273.325C15.711 271.722 17.2497 270.613 19.0298 269.794C19.2974 269.671 20.9779 269.171 20.4279 269.151M25.9363 275.601C35.1935 273.15 45.2556 273.629 54.7407 273.976C70.9262 274.567 86.8541 275.552 102.911 277.77C119.054 279.999 135.285 281.545 151.418 283.783C171.805 286.611 192.275 287.701 212.706 290.016C240.141 293.125 266.583 298.765 293.233 305.805C294.688 306.189 296.125 306.603 297.567 306.998M297.567 306.998C298.383 307.221 299.201 307.438 300.024 307.639M297.567 306.998C297.696 308.346 297.814 309.696 297.93 311.046M297.567 306.998C297.486 306.145 297.4 305.293 297.309 304.441C297.102 302.507 297.318 300.62 297.2 298.684C296.945 294.463 293.539 294.297 290.016 293.759C282.617 292.629 275.128 292.307 267.68 291.678C258.94 290.939 250.668 291.703 241.984 292.227C233.859 292.716 225.79 291.439 217.809 290.103C211.978 289.127 205.956 287.537 200.04 287.321M300.024 307.639C300.722 307.811 301.425 307.971 302.133 308.114C303.624 308.417 305.051 308.176 306.382 307.377C306.784 307.136 308.153 305.204 307.559 304.742C306.708 304.079 302.909 305.947 302.177 306.256C301.311 306.622 300.606 307.089 300.024 307.639ZM300.024 307.639C299.036 308.571 298.4 309.739 297.93 311.046M297.93 311.046C297.534 312.15 297.256 313.353 296.987 314.597C296.234 318.074 296.393 319.543 297.956 322.345C299.711 325.493 298.451 317.002 298.394 316.385C298.232 314.606 298.083 312.826 297.93 311.046ZM106.033 272.279C127.527 273.065 148.96 275.634 170.45 276.866C179.094 277.361 187.236 278.747 195.579 281.082C197.938 281.743 200.299 282.41 202.649 283.101C204.612 283.679 202.726 283.672 201.935 283.819M69.0498 280.748C71.276 280.829 73.4896 281.353 75.6943 281.636C89.8628 283.454 104.02 285.324 118.178 287.231C142.768 290.542 167.547 292.104 192.287 293.932C210.125 295.25 227.907 296.375 245.785 297.028L276.036 298.134M174.578 294.872C172.64 293.491 174.729 294.767 175.503 295.104C179.616 296.896 185.052 297.286 189.38 298.24C196.769 299.869 204.114 301.72 211.508 303.314C222.443 305.672 233.915 307.121 245.116 307.271C251.175 307.351 257.564 306.786 258.749 299.635C260.046 291.802 248.238 290.388 243.011 288.966C239.145 287.914 235.198 286.83 231.289 285.959C220.22 283.49 209.033 280.648 197.588 281.875" stroke="#43B0EF" stroke-width="20" stroke-linecap="round"/>
<path d="M104.479 26.1089C100.79 26.1089 97.1565 27.3109 93.7288 28.6038C85.0355 31.8829 76.3967 35.7042 68.5638 40.7396C60.8065 45.7265 55.486 54.2076 51.8077 62.424C47.6585 71.6925 44.081 81.3111 42.9985 91.47C41.9072 101.712 41.5893 112.204 42.6597 122.456C43.81 133.476 46.0575 144.349 47.3723 155.353C48.408 164.02 50.4251 172.343 53.0398 180.672C55.8093 189.493 59.047 198.191 64.4364 205.759C67.5814 210.176 71.4563 213.958 74.8012 218.203C78.1986 222.515 81.9974 226.663 86.244 230.154C96.3583 238.471 108.962 245.304 121.573 248.836C129.64 251.094 137.905 252.126 146.23 252.886C155.305 253.715 164.306 254.257 173.413 254.257C180.556 254.257 187.598 253.737 194.697 252.994C202.85 252.14 211.16 251.232 219.23 249.821C226.471 248.556 233.486 246.595 240.483 244.416C245.997 242.698 251.709 241.482 257.147 239.549C260.888 238.219 264.789 237.259 268.513 235.945C269.035 235.761 272.043 235.164 270.623 234.42C268.344 233.227 266.327 231.22 264.647 229.307C260.843 224.977 258.099 219.76 255.099 214.861C251.936 209.697 248.301 204.304 246.751 198.382C243.538 186.102 239.513 174.131 235.694 162.037C233.578 155.336 231.546 148.527 229.841 141.707C228.139 134.897 225.418 128.314 222.295 122.025C219.342 116.079 215.741 110.54 212.9 104.53C211.553 101.678 209.92 98.9612 208.434 96.1826C206.982 93.4675 205.956 90.5043 204.815 87.6506C202.21 81.1383 198.766 74.5461 194.974 68.6613C191.289 62.9429 187.128 57.1466 181.837 52.7677C177.137 48.8784 172.511 44.6404 167.268 41.4943C164.634 39.9143 162.145 38.1246 159.46 36.6276C156.387 34.9148 153.268 33.4513 150.327 31.5145C147.835 29.8734 145.351 28.7184 142.503 27.8029C139.644 26.884 136.577 26.8846 133.617 26.5247C128.4 25.8902 123.365 25 118.077 25C116.343 25 114.685 25.1344 112.964 25.2618C111.998 25.3334 110.935 25.1064 110.007 25.4312C108.434 25.9819 106.557 25.6937 105.31 26.9405M100.043 125.075C98.0979 123.526 96.8285 125.823 96.0236 127.708C93.4982 133.624 93.7676 140.318 95.7618 146.359C97.8448 152.669 102.258 157.506 106.974 161.944M103.647 92.3633C99.7899 93.7633 97.3446 95.9669 94.8223 99.3399C86.4233 110.571 85.6384 124.404 86.4135 137.95C86.861 145.772 87.6561 154.666 91.3879 161.79C91.8131 162.602 93.5257 164.767 94.4681 165.486C96.6026 167.117 94.1015 164.92 95.3305 165.271M71.7672 84.6013C68.9389 88.561 67.9216 93.0379 66.9468 97.7998C64.7816 108.376 64.4601 118.773 66.2383 129.418C67.2373 135.398 68.7517 141.271 70.72 147.005C71.5115 149.311 72.9396 153.001 74.0774 155.26C77.5381 162.131 73.7866 154.215 77.0343 159.726M60.6786 91.8088C56.7173 97.3338 57.0749 105.543 57.121 112.03C57.1929 122.136 58.5415 132.282 60.7402 142.139C62.0918 148.198 63.6918 154.292 65.8225 160.127C67.1693 163.815 68.5008 167.078 70.1039 170.676C70.7618 172.153 71.4219 173.631 72.1676 175.066C73.655 177.926 74.9714 180.461 76.1318 182.698M76.1318 182.698C90.0788 209.586 81.4857 193.436 76.1318 182.698ZM76.1318 182.698C73.4737 177.367 71.614 173.37 73.7077 176.637M64.5596 129.233C63.3584 134.638 64.1003 140.431 64.9908 145.835C66.6241 155.745 69.9922 165.881 74.3545 174.927C77.6074 181.672 82.0262 187.739 86.8292 193.454C87.0686 193.739 88.9486 196.053 89.7862 196.581C90.5914 197.088 90.3187 195.097 90.3406 194.933M66.2229 156.954C65.4871 157.575 65.2274 157.728 65.2681 158.818C65.3999 162.343 66.2232 166.131 67.2086 169.491C69.7972 178.316 75.8059 186.224 81.3465 193.423C85.9805 199.445 92.1126 203.139 98.5955 206.945C101.025 208.372 104.677 210.967 107.251 211.288M78.4204 179.686C78.1125 180.032 78.109 180.4 78.1432 180.856C78.6177 187.183 80.4481 193.413 83.9031 198.752C87.8876 204.91 93.0105 211.232 98.8419 215.755C102.787 218.815 107.371 220.877 111.963 222.654M91.7267 160.281C93.7997 164.723 96.5237 168.774 99.2885 172.817C104.12 179.884 109.236 186.737 115.167 192.931C119.632 197.593 124.532 201.934 129.721 205.775C130.656 206.467 131.609 207.137 132.601 207.746C135.159 209.318 136.949 210.423 138.145 211.163M138.145 211.163C141.463 213.217 140.213 212.473 138.145 211.163ZM138.145 211.163C135.561 209.527 131.699 207.01 133.863 207.962M84.519 178.023C80.3791 181.335 80.1463 187.707 80.5302 192.592C80.6783 194.475 80.9165 195.403 81.3465 197.043C81.5923 197.98 81.4697 197.094 81.4697 196.873M73.4306 186.339C73.5606 188.549 74.2148 190.331 74.8167 192.438M58.1838 104.838C58.5189 96.7115 59.8424 86.44 64.4057 79.4727C66.0959 76.8921 68.0808 74.5415 70.1902 72.2955M70.1902 72.2955C70.2298 72.2533 70.2695 72.2111 70.3092 72.169M70.1902 72.2955C70.2185 72.2843 70.2597 72.2382 70.3092 72.169M70.1902 72.2955C70.1588 72.308 70.1433 72.2775 70.1502 72.1881C70.2265 71.1957 70.4605 70.1557 70.72 69.2004C71.8924 64.8852 75.2261 61.5361 78.3588 58.5122C82.8984 54.1304 89.0684 51.1577 94.7761 48.5633M70.3092 72.169C73.0812 69.2291 76.0617 66.4651 78.8671 63.5945C81.6678 60.7286 84.2233 57.74 87.3375 55.1856C92.0065 51.356 96.9323 50.4399 102.631 49.2255C104.462 48.8352 105.911 47.7319 107.312 46.5458C108.619 45.4401 107.847 45.2178 106.234 45.0211C102.983 44.6245 100.104 45.8957 97.3327 47.4544C93.4191 49.6558 89.3579 51.7618 85.628 54.2616C79.2809 58.5155 74.9255 64.5554 70.9972 70.9869C70.8307 71.2596 70.5051 71.8952 70.3092 72.169ZM105.31 42.7419C105.31 40.3178 109.077 39.6937 110.978 39.1381C117.742 37.1604 123.888 39.4895 129.767 42.6495C137.921 47.0321 145.823 51.1769 152.406 57.8039C157.354 62.7857 161.884 68.2032 166.19 73.7437C166.725 74.4326 168.158 76.8125 169.07 77.1165M149.11 49.3949C149.391 49.6762 149.658 49.9147 150.003 50.1187C155.388 53.3005 160.588 57.2196 165.035 61.6077C176.11 72.5378 183.138 87.3263 189.584 101.234M166.02 67.4139C170.735 75.3052 176.146 82.7711 181.052 90.5459C186.098 98.5442 190.807 106.758 195.651 114.879C198.973 120.447 202.093 126.107 204.522 132.128C205.012 133.342 206.043 136.121 206.37 137.58C208.011 144.896 205.929 135.618 206.216 139.213M183.762 82.6607C192.936 95.3213 200.204 109.543 206.463 123.843C210.233 132.456 213.417 141.393 216.227 150.363C216.722 151.942 217.85 155.578 218.044 157.632C218.312 160.463 217.825 157.391 217.582 159.172M84.7963 95.1354C85.5046 93.2231 87.2398 91.3489 88.4001 89.8375C95.796 80.204 103.557 70.8377 112.518 62.6088C114.365 60.9131 116.253 59.137 118.509 57.9886C121.848 56.2885 124.701 60.0297 123.914 63.3789C123.155 66.6123 120.134 70.322 118.278 72.7734C113.453 79.144 115.398 76.0384 111.101 82.1987C110.663 82.827 107.922 86.9553 107.343 88.1126C106.375 90.0485 110.874 85.5956 112.502 84.17C117.836 79.501 120.946 76.9253 126.594 72.3114C128.862 70.4591 131.142 68.6225 133.432 66.7979L133.443 66.789C134.712 65.7776 135.982 64.7659 137.282 63.7947C137.684 63.4947 138.082 62.7865 138.545 62.9785C138.93 63.138 138.144 63.7095 137.914 64.0565C137.374 64.8705 136.815 65.6726 136.235 66.4591C131.814 72.4567 127.083 78.2204 122.559 84.1392C120.938 86.2601 119.265 88.3451 117.754 90.5459C117.058 91.5597 115.662 92.5697 115.952 93.7647C116.155 94.6015 117.569 93.1091 118.247 92.5788C120.546 90.7819 122.659 88.7586 124.838 86.8189C131.384 80.995 133.754 78.6352 140.208 73.1122C141.711 71.8268 143.232 70.5609 144.798 69.3544C147.496 67.276 145.368 69.4548 144.736 70.0936C136.953 77.9615 128.829 85.4898 121.543 93.8417C120.485 95.0537 119.339 96.2259 118.555 97.6303C118.426 97.8608 119.102 97.9568 119.325 97.8151C126.154 93.4708 132.249 87.4143 138.514 82.3219C141.042 80.2673 143.561 78.2009 146.138 76.2078C147.798 74.9233 142.956 78.9477 141.394 80.3506C135.886 85.2992 131.649 89.2478 126.225 94.4732C123.675 96.9287 121.093 99.3529 118.647 101.912C115.92 104.766 113.41 107.519 118.771 104.068C121.388 102.383 137.095 91.0876 138.822 89.8683C141.739 87.8096 144.658 85.7525 147.616 83.7542C149.919 82.1989 152.053 80.0331 154.778 79.4881C155.692 79.3053 153.723 81.0422 153.053 81.6905C151.233 83.451 149.324 85.1203 147.447 86.8189M99.2115 126.183C114.899 116.734 129.397 105.28 144.582 95.043C146.849 93.5147 148.958 91.8512 151.174 90.2687C151.979 89.6934 150.006 91.8676 149.387 92.6404M109.191 153.35C110.43 152.662 111.55 151.447 112.533 150.548C125.579 138.615 138.468 126.224 153.022 116.111C156.503 113.693 160.047 111.341 163.541 108.934C165.73 107.427 168.049 105.803 170.456 105.115M116.399 170.261C116.369 171.187 116.239 171.043 117.723 169.953C119.534 168.623 127.127 162.441 127.857 161.852C140.58 151.577 153.215 141.235 165.681 130.65C170.746 126.349 175.752 121.703 181.282 117.975C181.649 117.728 182.839 116.901 183.392 116.712C183.951 116.521 183.129 117.866 182.93 118.422M129.151 181.626C129.151 182.19 129.117 181.818 130.26 181.01C134.394 178.089 138.498 175.106 142.565 172.093C153.993 163.627 164.885 154.456 176 145.589C182.487 140.413 188.941 135.179 195.513 130.111C196.521 129.334 196.845 129.102 197.854 128.401C198.094 128.235 198.339 128.076 198.578 127.908C198.702 127.821 198.07 128.231 198.177 128.124M131.646 193.824C132.392 197.554 141.764 189.611 142.534 189.065C155.285 180.036 167.816 170.668 180.282 161.251C185.905 157.003 191.396 152.539 197.161 148.484C197.996 147.896 201.113 145.954 198.732 147.806M140.517 213.506C140.883 213.831 141.179 213.852 141.595 213.537C144.556 211.294 147.352 208.694 150.157 206.283C158.336 199.255 166.517 192.241 174.891 185.446C184.102 177.971 193.422 170.626 202.905 163.5L203.18 163.293C205.794 161.329 208.411 159.362 211.083 157.478C211.615 157.103 212.905 155.709 213.147 156.677M240.591 226.535C238.563 224.507 236.843 222.18 235.016 219.975C231.751 216.034 228.597 212.066 225.729 207.823C225.032 206.792 224.028 205.226 223.234 204.204C222.337 203.048 222.123 203.297 221.186 202.695M251.402 228.476C248.989 227.607 246.581 226.658 244.195 225.704M202.89 165.825C202.607 165.542 203.43 166.541 203.444 166.564C203.869 167.248 204.327 168.36 204.584 168.921C207.661 175.632 210.743 182.341 213.824 189.05C217.139 196.266 220.314 203.449 223.003 210.919C223.343 211.862 223.556 212.877 224.097 213.722C224.589 214.492 223.838 211.912 223.681 211.011M218.414 163.33C224.171 177.879 228.959 192.688 233.876 207.531C234.504 209.426 235.237 211.28 235.878 213.167C236.095 213.805 235.75 213.613 235.324 213.783M188.752 178.577C190.163 183.456 192.048 188.128 193.988 192.823C197.295 200.824 200.655 208.937 205.323 216.263C206.94 218.801 208.719 221.264 210.683 223.547C211.464 224.456 211.64 224.7 211.484 223.763M106.419 224.318C106.419 226.17 108.127 227.329 109.361 228.584C114.674 233.988 121.484 236.921 128.689 238.979C134.604 240.669 140.406 240.753 146.492 241.012C151.249 241.214 155.988 241.595 160.753 241.72C166.068 241.86 171.08 241.185 176.293 240.273L176.709 240.2C183.253 239.055 189.749 237.918 196.221 236.392C207.411 233.753 219.062 233.143 230.103 229.769C230.921 229.519 228.469 229.239 227.624 229.107C219.844 227.898 212 227.115 204.183 226.196C196.486 225.291 188.79 224.148 181.051 223.655C176.516 223.366 171.979 223.28 167.468 222.685C159.501 221.635 151.694 219.535 143.643 219.328C141.131 219.263 138.619 219.159 136.106 219.098M136.106 219.098C134.907 219.069 133.707 219.05 132.508 219.05C129.452 219.05 135.836 219.119 135.927 219.112C135.987 219.108 136.046 219.103 136.106 219.098ZM136.106 219.098C139.993 218.789 143.794 217.816 147.555 216.833C154.505 215.016 161.64 213.114 168.269 210.303C171.349 208.997 173.881 206.821 176.678 205.036C177.831 204.3 180.297 203.24 177.355 203.773C169.409 205.212 161.778 207.851 154.131 210.38C149.795 211.813 148.264 212.332 144.059 213.552C142.166 214.102 140.029 214.481 138.176 215.231C135.652 216.252 132.875 217.764 130.259 217.11" stroke="#F4CB15" stroke-width="50" stroke-linecap="round"/>
<path d="M59.6514 71.186C54.7702 72.2812 51.9854 74.6592 50.2645 79.2274C48.7001 83.3889 49.451 85.3601 52.5799 85.3601C54.2383 85.3601 54.2383 85.3601 56.4911 83.0447C59.9955 79.3526 62.6864 78.5703 65.8154 80.26C67.0044 80.917 67.7553 81.668 68.913 83.3889C70.6339 85.9234 71.1346 86.2988 72.8868 86.2988C77.5176 86.2988 78.3311 82.9196 74.9832 77.6317C72.7616 74.1272 70.7591 72.5941 67.0357 71.4676C65.4399 70.9983 61.1845 70.8419 59.6514 71.186Z" fill="black"/>
<path d="M107.837 71.7805C104.333 72.6253 101.673 74.8782 99.7957 78.6329C98.7006 80.7919 98.3251 83.7956 98.9822 85.0159C100.015 86.8933 102.33 87.5817 104.02 86.4552C104.489 86.1736 105.178 85.3288 105.616 84.5779C107.368 81.5741 110.997 79.4464 113.532 79.9158C114.502 80.0722 115.284 80.698 117.599 83.0447L120.478 85.9859H122.105C123.982 85.9859 125.328 85.2975 125.86 84.046C127.018 81.2299 123.2 74.8156 119.258 72.9069C115.878 71.3112 111.592 70.8731 107.837 71.7805Z" fill="black"/>
<path d="M44.9765 90.2094C43.5059 90.71 43.0678 91.0855 42.4733 92.3683C41.8475 93.6825 41.8475 95.8415 42.442 97.5311C43.4433 100.441 46.1342 105.291 48.6061 108.733C53.9878 116.242 61.8102 122.218 70.4461 125.41C76.8604 127.788 81.1783 128.633 87.1859 128.664C92.9119 128.664 95.6966 128.163 102.205 125.973C112.405 122.531 120.009 117.431 126.016 109.953C128.112 107.356 132.618 98.814 133.307 96.1544C133.682 94.715 133.307 92.7751 132.462 91.8051C131.617 90.8664 129.708 90.0529 128.331 90.0529C125.734 90.0529 124.326 91.3984 123.294 94.8715C121.198 101.912 114.627 110.454 108.619 113.958C105.177 115.992 100.64 117.744 96.2911 118.777C93.2873 119.465 92.0983 119.59 87.3424 119.59C82.3048 119.621 81.5851 119.528 78.2684 118.714C71.1344 116.931 65.4398 114.021 61.247 110.047C56.5536 105.604 53.8627 101.505 51.9853 95.8102C50.9528 92.7751 50.4834 91.7738 49.7325 91.1481C48.9189 90.4597 48.4496 90.2719 46.6348 89.9278C46.3532 89.8652 45.6023 89.9903 44.9765 90.2094Z" fill="black"/>
</svg>
