<svg width="44" height="44" viewBox="0 0 44 44" fill="none" xmlns="http://www.w3.org/2000/svg">
<path fill-rule="evenodd" clip-rule="evenodd" d="M3.03831 4.43058L15.6659 2.95704V17.7542H0.428467V7.28442C0.428467 7.24744 0.429799 7.21046 0.432464 7.17359C0.532636 5.78664 1.63111 4.59926 3.03351 4.43113L3.03831 4.43058ZM0.428467 21.6004V32.1276L0.428479 32.1334C0.433931 33.5466 1.47266 34.826 2.88437 35.0826L15.6659 37.0716V21.6004H0.428467ZM19.512 21.6004V37.6697L37.0008 40.3909C38.8282 40.6866 40.4162 39.23 40.4285 37.4703V21.6004H19.512ZM40.4285 17.7542V3.39366C40.4285 1.69316 38.9272 0.204431 37.1026 0.455514L19.512 2.50821V17.7542H40.4285Z" fill="white"/>
</svg>
